<mxfile host="65bd71144e">
    <diagram id="3oItRrPK7W9dvN_FXCk4" name="Page-1">
        <mxGraphModel dx="1804" dy="1082" grid="1" gridSize="10" guides="1" tooltips="1" connect="1" arrows="1" fold="1" page="0" pageScale="1" pageWidth="850" pageHeight="1100" math="0" shadow="0">
            <root>
                <mxCell id="0"/>
                <mxCell id="1" parent="0"/>
                <mxCell id="2" value="" style="rounded=1;whiteSpace=wrap;html=1;arcSize=17;glass=0;" parent="1" vertex="1">
                    <mxGeometry x="40" y="60" width="780" height="410" as="geometry"/>
                </mxCell>
                <mxCell id="10" value="" style="rounded=1;whiteSpace=wrap;html=1;arcSize=19;fillColor=#02002E;glass=1;shadow=0;" parent="1" vertex="1">
                    <mxGeometry x="460" y="60" width="360" height="410" as="geometry"/>
                </mxCell>
                <mxCell id="12" value="&lt;font style=&quot;font-size: 37px;&quot;&gt;Log In&lt;/font&gt;" style="text;html=1;strokeColor=default;fillColor=none;align=center;verticalAlign=middle;whiteSpace=wrap;rounded=1;strokeWidth=3;arcSize=33;" parent="1" vertex="1">
                    <mxGeometry x="535" y="310" width="210" height="50" as="geometry"/>
                </mxCell>
                <mxCell id="14" value="AIcon" style="text;html=1;strokeColor=default;fillColor=none;align=center;verticalAlign=middle;whiteSpace=wrap;rounded=1;fontSize=22;arcSize=27;" vertex="1" parent="1">
                    <mxGeometry x="535" y="400" width="60" height="30" as="geometry"/>
                </mxCell>
                <mxCell id="15" value="GIcon" style="text;html=1;strokeColor=default;fillColor=none;align=center;verticalAlign=middle;whiteSpace=wrap;rounded=1;fontSize=22;arcSize=27;" vertex="1" parent="1">
                    <mxGeometry x="685" y="400" width="60" height="30" as="geometry"/>
                </mxCell>
                <mxCell id="16" value="&lt;font style=&quot;font-size: 26px;&quot;&gt;Wecome to our login page&lt;/font&gt;" style="text;html=1;strokeColor=none;fillColor=none;align=center;verticalAlign=middle;whiteSpace=wrap;rounded=0;fontSize=22;" vertex="1" parent="1">
                    <mxGeometry x="482.5" y="110" width="315" height="140" as="geometry"/>
                </mxCell>
                <mxCell id="17" value="Text" style="text;html=1;strokeColor=default;fillColor=none;align=left;verticalAlign=middle;whiteSpace=wrap;rounded=1;fontSize=26;arcSize=38;" vertex="1" parent="1">
                    <mxGeometry x="100" y="162.5" width="320" height="35" as="geometry"/>
                </mxCell>
                <mxCell id="18" value="Text" style="text;html=1;strokeColor=default;fillColor=none;align=left;verticalAlign=middle;whiteSpace=wrap;rounded=1;fontSize=26;arcSize=38;glass=0;" vertex="1" parent="1">
                    <mxGeometry x="100" y="215" width="320" height="35" as="geometry"/>
                </mxCell>
                <mxCell id="19" value="&lt;font style=&quot;font-size: 37px;&quot;&gt;Sign Up&lt;/font&gt;" style="text;html=1;strokeColor=default;fillColor=none;align=center;verticalAlign=middle;whiteSpace=wrap;rounded=1;strokeWidth=3;arcSize=33;" vertex="1" parent="1">
                    <mxGeometry x="155" y="310" width="210" height="50" as="geometry"/>
                </mxCell>
                <mxCell id="21" value="" style="rounded=1;whiteSpace=wrap;html=1;arcSize=17;glass=0;" vertex="1" parent="1">
                    <mxGeometry x="40" y="610" width="780" height="410" as="geometry"/>
                </mxCell>
                <mxCell id="22" value="" style="rounded=1;whiteSpace=wrap;html=1;arcSize=19;fillColor=#02002E;glass=1;shadow=0;" vertex="1" parent="1">
                    <mxGeometry x="40" y="610" width="360" height="410" as="geometry"/>
                </mxCell>
                <mxCell id="23" value="&lt;font style=&quot;font-size: 37px;&quot;&gt;Log In&lt;/font&gt;" style="text;html=1;strokeColor=default;fillColor=none;align=center;verticalAlign=middle;whiteSpace=wrap;rounded=1;strokeWidth=3;arcSize=33;" vertex="1" parent="1">
                    <mxGeometry x="505" y="860" width="210" height="50" as="geometry"/>
                </mxCell>
                <mxCell id="24" value="AIcon" style="text;html=1;strokeColor=default;fillColor=none;align=center;verticalAlign=middle;whiteSpace=wrap;rounded=1;fontSize=22;arcSize=27;" vertex="1" parent="1">
                    <mxGeometry x="115" y="950" width="60" height="30" as="geometry"/>
                </mxCell>
                <mxCell id="25" value="GIcon" style="text;html=1;strokeColor=default;fillColor=none;align=center;verticalAlign=middle;whiteSpace=wrap;rounded=1;fontSize=22;arcSize=27;" vertex="1" parent="1">
                    <mxGeometry x="265" y="950" width="60" height="30" as="geometry"/>
                </mxCell>
                <mxCell id="26" value="&lt;font style=&quot;font-size: 26px;&quot;&gt;Wecome to our login page&lt;/font&gt;" style="text;html=1;strokeColor=none;fillColor=none;align=center;verticalAlign=middle;whiteSpace=wrap;rounded=0;fontSize=22;" vertex="1" parent="1">
                    <mxGeometry x="62.5" y="650" width="315" height="140" as="geometry"/>
                </mxCell>
                <mxCell id="27" value="Text" style="text;html=1;strokeColor=default;fillColor=none;align=left;verticalAlign=middle;whiteSpace=wrap;rounded=1;fontSize=26;arcSize=38;" vertex="1" parent="1">
                    <mxGeometry x="450" y="755" width="320" height="35" as="geometry"/>
                </mxCell>
                <mxCell id="28" value="Text" style="text;html=1;strokeColor=default;fillColor=none;align=left;verticalAlign=middle;whiteSpace=wrap;rounded=1;fontSize=26;arcSize=38;glass=0;" vertex="1" parent="1">
                    <mxGeometry x="450" y="702.5" width="320" height="35" as="geometry"/>
                </mxCell>
                <mxCell id="29" value="&lt;font style=&quot;font-size: 37px;&quot;&gt;Sign Up&lt;/font&gt;" style="text;html=1;strokeColor=default;fillColor=none;align=center;verticalAlign=middle;whiteSpace=wrap;rounded=1;strokeWidth=3;arcSize=33;" vertex="1" parent="1">
                    <mxGeometry x="115" y="860" width="210" height="50" as="geometry"/>
                </mxCell>
            </root>
        </mxGraphModel>
    </diagram>
</mxfile>